<?xml version="1.0" ?><!DOCTYPE svg  PUBLIC '-//W3C//DTD SVG 1.1//EN'  'http://www.w3.org/Graphics/SVG/1.1/DTD/svg11.dtd'><svg height="96" version="1.1" viewBox="0 0 96 96" width="96" xmlns="http://www.w3.org/2000/svg" xmlns:xlink="http://www.w3.org/1999/xlink"><path d="M82 60h-68c-7.72 0-14 6.28-14 14v4c0 7.72 6.28 14 14 14h68c7.72 0 14-6.28 14-14v-4c0-7.72-6.28-14-14-14zM79 82c-3.308 0-6-2.692-6-6s2.692-6 6-6 6 2.692 6 6-2.692 6-6 6z" fill="#000000"/><path d="M81 76c0 1.105-0.895 2-2 2s-2-0.895-2-2c0-1.105 0.895-2 2-2s2 0.895 2 2z" fill="#000000"/><path d="M82 56c4.244 0 8.084 1.536 11.168 3.996l-5.644-42.62c-1.008-7.624-7.572-13.376-15.264-13.376h-48.544c-7.672 0-14.236 5.736-15.26 13.34l-5.76 42.772c3.1-2.532 7.004-4.112 11.308-4.112h67.996zM28 20h37.116l-6.444-6.416c-0.784-0.776-0.788-2.048-0.008-2.828 0.776-0.78 2.048-0.792 2.828-0.008l10.004 9.956c0.376 0.376 0.588 0.888 0.588 1.416s-0.216 1.044-0.588 1.416l-10.004 9.956c-0.388 0.392-0.9 0.584-1.416 0.584-0.508 0-1.028-0.196-1.416-0.588-0.78-0.78-0.776-2.048 0.008-2.828l6.696-6.664h-37.364c-1.104 0-2-0.896-2-2s0.896-1.996 2-1.996zM22.588 36.708l10-9.956c0.78-0.78 2.048-0.772 2.828 0.008s0.776 2.052-0.008 2.828l-6.44 6.416h39.032c1.1 0 2 0.896 2 2s-0.9 2-2 2h-39.28l6.692 6.664c0.784 0.78 0.788 2.048 0.008 2.828-0.388 0.392-0.904 0.588-1.416 0.588-0.508 0-1.020-0.196-1.412-0.584l-10-9.956c-0.376-0.376-0.588-0.888-0.588-1.416s0.208-1.044 0.584-1.42z" fill="#000000"/></svg>